# xmcd
#
# Track frame offsets:
#	150
#	17130
#	34520
#	55147
#	72822
#
# Disc length: 1159 seconds
#
# Revision: 0
# Processed by: cddbd v1.5.2PL0 Copyright (c) Steve Scherf et al.
# Submitted via: audiograbber 1.83.01
#
DISCID=37048505
DTITLE=P‰‰t - Mustaa '92 [CDS-Promo)
DYEAR=1992
DGENRE=Pop
TTITLE0=Mustaa '92 (Mitromix)
TTITLE1=Mustaa
TTITLE2=Muftaa (Pannujauhatus)
TTITLE3=Tanssi!! (Tumma Paahto)
TTITLE4=Tanssi! (Instant!)
EXTD=TR.
EXTT0=
EXTT1=
EXTT2=
EXTT3=
EXTT4=
PLAYORDER=
